<svg version="1.2" xmlns="http://www.w3.org/2000/svg" viewBox="0 0 392 392" width="392" height="392"><style>.a{fill:#fff}</style><path class="a" d="m179.2 236.6c-1.5-15.3-2.9-30.1-4.2-44.9-0.7-8.9-1.2-17.7-2-26.5-1.2-12.4-2.7-24.7-3.9-37.1-0.8-7.6-1.4-15.3-2.1-23-0.4-3.9-0.7-7.7-1.1-11.7-3.6 3.8-7 7.4-10.7 11.3-11.1-8.1-19.8-16.8-27.4-27.2 20.6-20.5 40.8-40.8 61.2-61 5.4-5.3 14.1-4.9 19.8 0.8 18.4 18.3 36.7 36.7 55.1 55.1 1.6 1.6 3.4 3 5.5 4.9-8.3 8.3-16.7 16.6-25.2 24.8-0.6 0.6-3.1 0.2-4-0.5-2.3-1.9-4.2-4.3-7-7.2-0.8 6.9-1.5 12.9-2.2 18.9-1.3 12.3-2.7 24.7-4 37-0.7 7.8-1.2 15.7-2 23.5-1.2 11.5-2.7 23-3.9 34.5-0.9 7.8-1.3 15.7-2.1 23.5-1.2 11.3-2.7 22.7-3.9 34-0.8 7.2-1.4 14.3-2.1 21.5-1.3 12.3-2.7 24.7-4 37-0.8 8-1.2 16-2 24-0.8 7.8-2 15.5-2.9 23.2-0.4 4.1-3.2 4.6-6.3 4.4-3.3-0.2-5.4-2.2-5.8-5.5-1.1-11.8-1.9-23.5-3-35.3-1.2-11.8-2.8-23.6-3.9-35.5-0.9-8.6-1.3-17.3-2.1-26-1.1-12.2-2.4-24.4-3.8-37z"/><path class="a" d="m182 373.4c-2.1-0.1-4.8 0-6.2-1.3q-16.7-16.2-33-32.8c-24.8-25.4-49.5-50.8-74.3-76.3-10.9-11.1-21.7-22.4-32.6-33.5-6.6-6.9-13.7-13.3-20.1-20.3-5.4-5.9-5.4-12.9 0-18.3 35.4-35.8 71.1-71.3 106.2-106.4 8.7 8.7 17.4 17.4 27.1 27.2-1.5 1.2-4.2 3-6.5 5.3-8 7.8-15.8 15.7-23.7 23.6q-24 24-47.9 47.9c-7 7.1-7.1 15.9-0.1 22.9 34.3 34.3 68.4 68.7 103 102.7 4.8 4.6 4.3 9.8 4.9 14.7 1.6 14.7 2.2 29.4 3.2 44.6z"/><path class="a" d="m215 374.5c0.7-5.4 1.6-10.4 2-15.4 0.8-10.5 1.3-21 2-31.5 0.4-5.4 1.6-10 5.9-14.3 34.1-33.6 67.7-67.6 101.7-101.2 6.6-6.5 7.6-16.6 0-24.1-25.4-25.1-50.5-50.4-75.7-75.6-0.7-0.7-1.4-1.4-2.5-2.6 8.5-9 16.8-17.9 25.3-26.9 1.9 1.6 2.9 2.2 3.6 3q51.7 51.5 103.3 103.2c6.3 6.3 6.3 15.5 0.1 21.7-50.3 50.3-100.7 100.6-150.9 151-3.7 3.6-6.9 7.6-10.5 11.2-1 1-2.8 1.3-4.3 1.5z"/></svg>