<svg version="1.2" xmlns="http://www.w3.org/2000/svg" viewBox="0 0 500 634" width="500" height="634">
	<title>Ceniteg Logo</title>
	<style>
		.s0 { fill: #3e4049 } 
		.s1 { fill: #3888bb } 
	</style>
	<g id="Carpeta 2">
		<path class="s0" d="m219.4 555.9c-8.9-13.4-17.7-26.7-26.5-39.9-0.8-1.3-1.8-2.5-3-3.9 0 15.9 0 31.5 0 47.4-4.6 0-8.9 0-13.4 0 0-24 0-47.9 0-72.1 4.1 0 8-0.1 11.9 0.1 1 0 2.1 1.2 2.7 2.2 8.4 12.6 16.7 25.2 25.1 37.9 1 1.5 2 3.1 3.3 4.9 0-15.1 0-29.9 0-44.9 4.6 0 8.9 0 13.4 0 0 23.9 0 47.8 0 72-3.4 0-6.8 0.3-10.2-0.2-1.2-0.1-2.1-2.1-3.3-3.5z"/>
		<path class="s0" d="m405 535.9c3.4 7.6 9.3 11.3 17.4 11.5 3.6 0 7.2 0 11 0 0-4.8 0-8.7 0-12.7-2.4 0-4.8 0-7.4 0 0-4 0-7.7 0-11.8 6.6 0 13.3-0.1 20 0.1 0.6 0 1.6 1.3 1.6 2.1 0.1 9.4 0.1 18.9-0.1 28.3 0 1-1.1 2.5-2.1 2.9-13.1 5.1-26.4 7.2-39.7 0.7-2.9-1.5-6-3.1-8.4-5.1-1.7-1.5-2.5-3.8-3.8-5.7-4.7-7.8-6.9-16.4-6.3-25.4 0.4-7.3 2.3-14.4 6.5-20.5 5.1-7.4 12.4-11.9 21.3-13.5 9.5-1.7 18.8-0.7 27.9 2.6 1.7 0.5 2.5 1 1.9 3.2-0.8 3.5-0.8 7.1-1.1 10.3-6.2-1.3-12.4-3.4-18.7-3.6-5.5-0.3-11.1 0.5-15.6 5.2-9.1 9.5-7.9 20.1-4.4 31.4z"/>
		<path class="s0" d="m344.6 505.7c0 3.3 0 6.3 0 9.5 8.5 0 16.6 0 24.9 0 0 4.4 0 8.8 0 13.3q-12.3 0-24.7 0c0 6 0 11.8 0 17.6 11.1 0 22 0 33.1 0 0 4.5 0 8.8 0 13.3-15.5 0-31 0-46.7 0 0-23.8 0-47.8 0-71.8 15.3 0 30.6 0 46 0 0 4.3 0 8.6 0 13.2q-16.1 0-32.3 0c-0.1 1.6-0.2 3.1-0.3 4.9z"/>
		<path class="s0" d="m136 546.1c10.3 0 20.3 0 30.5 0 0 4.4 0 8.7 0 13.3-15.4 0-30.9 0-46.7 0 0-23.8 0-47.7 0-71.8 15.3 0 30.5 0 46.1 0q0 6.3 0 13.2c-10.7 0-21.5 0-32.5 0 0 4.9 0 9.6 0 14.3 8.2 0 16.3 0 24.7 0 0 4.5 0 8.8 0 13.4-8.1 0-16.3 0-24.7 0 0 6 0 11.8 0 17.6 0.8 0 1.6 0 2.6 0z"/>
		<path class="s0" d="m69.3 491.9c5.3-3.6 11-5.4 17.1-5.8 7.5-0.4 15 0.1 22 3.2 1.5 0.7 2.4 0.8 1.8 3.2-0.9 3.4-0.7 7.2-1 10.8-4-1.1-8-2.7-12-3.2-6.5-0.7-13.3-2-19.2 2.7-4 3.2-6.4 7.3-7.6 12.2-1.9 8-1.3 15.8 2.4 23.2 3.8 7.5 10.8 9.9 17.8 9.2 6.2-0.8 12.2-2 18.4-3.1 0.5 3.1 1.1 7 1.5 10.9 0.1 0.6-0.9 1.7-1.5 1.9-4.4 1.3-8.7 3.2-13.2 3.7-11.2 1.1-21.8-1.1-30.4-8.9-5.3-4.7-8.5-11.1-10.1-18-1.9-7.9-1.8-16.1 0.9-23.8 2.1-6.2 5.1-12.1 10.7-16.1 0.9-0.5 1.5-1.4 2.4-2.1z"/>
		<path class="s0" d="m300.7 559c-4.3 0.3-8.7 0.6-13.4 0.9 0-19.8 0-39.2 0-58.8-6.7 0-13.2 0-19.9 0 0-4.6 0-8.9 0-13.5 17.8 0 35.7 0 53.7 0 0 4.2 0 8.5 0 13.2-6.5 0-13.2 0-19.7 0 0 19.2 0 38-0.2 57.3-0.3 0.5-0.4 0.7-0.5 0.9z"/>
		<path class="s0" d="m257.6 526.7c0 11 0 21.8 0 32.7-4.5 0-8.9 0-13.4 0 0-23.8 0-47.8 0-71.8 4.3 0 8.7 0 13.4 0 0 12.9 0 25.9 0 39.1z"/>
	</g>
	<g id="Carpeta 1">
		<path class="s1" d="m233.2 300.6c-1.5-15.3-2.9-30.1-4.2-44.9-0.7-8.9-1.2-17.7-2-26.5-1.2-12.4-2.7-24.7-3.9-37.1-0.8-7.6-1.4-15.3-2.1-23-0.4-3.9-0.7-7.7-1.1-11.7-3.6 3.8-7 7.4-10.7 11.3-11.1-8.1-19.8-16.8-27.4-27.2 20.6-20.5 40.8-40.8 61.2-61 5.4-5.3 14.1-4.9 19.8 0.8 18.4 18.3 36.7 36.7 55.1 55.1 1.6 1.6 3.4 3 5.5 4.9-8.3 8.3-16.7 16.6-25.2 24.8-0.6 0.6-3.1 0.2-4-0.5-2.3-1.9-4.2-4.3-7-7.2-0.8 6.9-1.5 12.9-2.2 18.9-1.3 12.3-2.7 24.7-4 37-0.7 7.8-1.2 15.7-2 23.5-1.2 11.5-2.7 23-3.9 34.5-0.9 7.8-1.3 15.7-2.1 23.5-1.2 11.3-2.7 22.7-3.9 34-0.8 7.2-1.4 14.3-2.1 21.5-1.3 12.3-2.7 24.7-4 37-0.8 8-1.2 16-2 24-0.8 7.8-2 15.5-2.9 23.2-0.4 4.1-3.2 4.6-6.3 4.4-3.3-0.2-5.4-2.2-5.8-5.5-1.1-11.8-1.9-23.5-3-35.3-1.2-11.8-2.8-23.6-3.9-35.5-0.9-8.6-1.3-17.3-2.1-26-1.1-12.2-2.4-24.4-3.8-37z"/>
		<path class="s0" d="m236 437.4c-2.1-0.1-4.8 0-6.2-1.3q-16.7-16.2-33-32.8c-24.8-25.4-49.5-50.8-74.3-76.3-10.9-11.1-21.7-22.4-32.6-33.5-6.6-6.9-13.7-13.3-20.1-20.3-5.4-5.9-5.4-12.9 0-18.3 35.4-35.8 71.1-71.3 106.2-106.4 8.7 8.7 17.4 17.4 27.1 27.2-1.5 1.2-4.2 3-6.5 5.3-8 7.8-15.8 15.7-23.7 23.6q-24 24-47.9 47.9c-7 7.1-7.1 15.9-0.1 22.9 34.3 34.3 68.4 68.7 103 102.7 4.8 4.6 4.3 9.8 4.9 14.7 1.6 14.7 2.2 29.4 3.2 44.6z"/>
		<path class="s0" d="m269 438.5c0.7-5.4 1.6-10.4 2-15.4 0.8-10.5 1.3-21 2-31.5 0.4-5.4 1.6-10 5.9-14.3 34.1-33.6 67.7-67.6 101.7-101.2 6.6-6.5 7.6-16.6 0-24.1-25.4-25.1-50.5-50.4-75.7-75.6-0.7-0.7-1.4-1.4-2.5-2.6 8.5-9 16.8-17.9 25.3-26.9 1.9 1.6 2.9 2.2 3.6 3q51.7 51.5 103.3 103.2c6.3 6.3 6.3 15.5 0.1 21.7-50.3 50.3-100.7 100.6-150.9 151-3.7 3.6-6.9 7.6-10.5 11.2-1 1-2.8 1.3-4.3 1.5z"/>
	</g>
</svg>